PathFileType	4	(X/Y/Z)	C:\Users\dbl\Desktop\LZH\BX\Trimmed_Trimmed_bx_y_10_901.trc
DataRate	CameraRate	NumFrames	NumMarkers	Units	OrigDataRate	OrigDataStartFrame	OrigNumFrames
50.00	50.00	       6	43	mm	50.00	93	       247
Frame#	Time	Top.Head			R.Acromium			L.Acromium			Sternum			R.ASIS			L.ASIS			V.Sacral			R.Thigh.Upper			R.Thigh.Front			R.Thigh.Rear			R.Knee.Lat			R.Knee.Med			R.Shank.Upper			R.Shank.Front			R.Shank.Rear			R.Ankle.Lat			R.Midfoot.Lat			R.Toe.Lat			R.Toe.Tip			R.Toe.Med			R.Ankle.Med			R.Midfoot.Sup			R.Heel			L.Thigh.Upper			L.Thigh.Front			L.Thigh.Rear			L.Knee.Lat			L.Knee.Med			L.Shank.Upper			L.Shank.Front			L.Shank.Rear			L.Ankle.Lat			L.Midfoot.Lat			L.Toe.Lat			L.Toe.Tip			L.Toe.Med			L.Ankle.Med			L.Midfoot.Sup			L.Heel			origin1 front left			origin2 front right			origin 3 back right			origin 4 back leftt			
		X1	Y1	Z1	X2	Y2	Z2	X3	Y3	Z3	X4	Y4	Z4	X5	Y5	Z5	X6	Y6	Z6	X7	Y7	Z7	X8	Y8	Z8	X9	Y9	Z9	X10	Y10	Z10	X11	Y11	Z11	X12	Y12	Z12	X13	Y13	Z13	X14	Y14	Z14	X15	Y15	Z15	X16	Y16	Z16	X17	Y17	Z17	X18	Y18	Z18	X19	Y19	Z19	X20	Y20	Z20	X21	Y21	Z21	X22	Y22	Z22	X23	Y23	Z23	X24	Y24	Z24	X25	Y25	Z25	X26	Y26	Z26	X27	Y27	Z27	X28	Y28	Z28	X29	Y29	Z29	X30	Y30	Z30	X31	Y31	Z31	X32	Y32	Z32	X33	Y33	Z33	X34	Y34	Z34	X35	Y35	Z35	X36	Y36	Z36	X37	Y37	Z37	X38	Y38	Z38	X39	Y39	Z39	X40	Y40	Z40	X41	Y41	Z41	X42	Y42	Z42	X43	Y43	Z43	

93	1.840	-450.23972	255.58432	1821.75842	-562.33789	57.62683	1524.82446	-575.73352	444.41617	1521.10120	-488.50256	261.66983	1379.72791	-553.94031	148.89160	1048.00684	-545.81885	386.13083	1055.98474	-744.39502	253.27786	1061.84802	-590.02197	96.63334	890.45367	-542.29230	154.92497	841.83997	-639.34290	92.14147	747.84180	-658.46637	125.43503	606.17078	-642.35242	234.15887	561.16016	-693.50623	124.94444	539.52051	-609.40674	174.78613	544.82941	-730.44043	127.96733	472.03082	-686.65167	146.55791	214.38959	-616.23877	78.86105	167.61823	-572.56799	49.96535	162.20091	-492.84253	89.95648	161.77205	-531.17242	143.75380	164.59178	-632.23730	219.97551	218.59155	-591.48499	189.87227	168.52740	-715.78778	215.59077	169.33073	-582.74811	437.02399	882.58228	-535.89923	376.20779	838.78381	-627.40112	440.35208	751.65674	-661.26453	414.94281	626.11407	-627.97949	311.24237	576.69324	-669.06238	411.98392	562.05035	-616.01202	370.35690	540.34583	-720.08124	417.40305	508.99597	-679.95947	413.79849	212.51598	-585.93488	468.46222	165.61414	-546.79846	479.63452	159.34131	-488.08139	429.76053	168.04292	-524.81573	387.89078	177.89326	-643.28406	326.25635	206.68849	-593.60272	346.98636	168.91083	-732.11316	342.22156	164.43938	-443.45929	449.17743	147.03491	-450.49240	75.22101	144.69904	-806.05212	82.45432	142.71959	-799.06195	457.61020	145.02547	
94	1.860	-435.41504	255.39188	1816.96375	-555.52802	57.62640	1523.35986	-568.98987	444.35886	1519.90027	-485.30566	261.31189	1376.36438	-557.28986	148.69984	1048.20581	-549.13385	385.48819	1056.16528	-747.57275	253.32956	1062.74731	-593.28711	96.31010	890.82727	-545.75281	154.62456	842.00305	-642.79889	91.76495	747.98383	-660.80927	125.25024	606.25446	-644.02490	234.07158	561.18988	-695.27960	124.95353	539.43970	-610.99231	174.57774	545.09424	-731.79504	127.93102	471.72791	-686.76074	146.43114	214.22609	-616.19135	78.77624	167.61385	-572.57721	49.95068	162.16100	-492.79578	90.02139	161.75670	-531.18683	143.75467	164.63676	-632.68927	219.61522	218.45560	-591.54260	189.69537	168.67549	-715.82471	215.52715	169.25276	-585.73682	436.91010	882.66254	-539.18372	376.03201	838.92841	-630.14905	440.61444	751.68408	-663.61871	415.08337	626.06659	-630.10034	311.27350	576.69086	-670.96222	412.17734	562.00275	-617.86108	370.45056	540.38843	-721.78082	417.61121	508.68625	-680.09436	413.98294	212.57401	-585.95422	468.45761	165.69629	-546.80762	479.65359	159.32010	-488.12469	429.68637	168.02060	-524.82965	387.89371	177.98720	-643.29803	326.31860	206.98506	-593.67706	347.03214	169.02415	-732.27264	342.38330	164.46828	-443.46811	449.15686	147.04292	-450.48416	75.16833	144.76892	-806.10583	82.46125	142.68901	-799.02478	457.64120	144.98875	
95	1.880	-420.29810	255.17412	1811.51819	-548.19995	57.61069	1521.51550	-561.63989	444.40707	1518.08472	-481.85837	260.96729	1372.75732	-561.09430	148.33888	1048.49292	-553.12292	384.45959	1056.14844	-751.09778	253.34460	1063.66528	-597.01251	96.01555	890.99249	-549.54535	154.32454	842.10339	-646.36621	91.54510	747.93298	-663.29852	125.08214	606.21753	-645.94128	233.96619	561.06134	-697.21832	124.98962	539.24365	-612.79926	174.46167	545.33148	-733.26660	127.88730	471.33780	-686.90253	146.27090	214.09785	-616.13123	78.69096	167.60976	-572.59790	49.92758	162.12416	-492.70920	90.19035	161.69644	-531.20850	143.73805	164.66728	-633.10236	219.24127	218.41972	-591.53931	189.58444	168.85631	-715.88629	215.44830	169.21016	-588.95398	436.76666	882.70874	-542.72974	375.76575	839.14459	-633.00214	440.88251	751.68195	-666.08276	415.22592	625.97418	-632.44690	311.26514	576.66608	-672.97864	412.41373	561.94940	-619.80743	370.45190	540.43640	-723.54120	417.84006	508.34674	-680.17944	414.21277	212.63356	-585.96973	468.44623	165.73711	-546.81079	479.65723	159.30171	-488.17896	429.58539	168.01604	-524.85266	387.91632	178.09621	-643.31201	326.41989	207.41396	-593.76440	347.08704	169.08250	-732.39203	342.54880	164.46341	-443.46432	449.14319	147.04483	-450.48746	75.11040	144.84663	-806.16449	82.48879	142.65111	-799.01978	457.61917	145.03079	
96	1.900	-404.98914	254.92017	1805.42419	-540.38489	57.52563	1519.31177	-553.54761	444.29495	1515.56433	-478.32245	260.64221	1369.04382	-565.28253	148.00504	1048.63062	-557.81775	383.13696	1055.51575	-754.96722	253.30579	1064.66492	-601.18970	95.80402	891.00232	-553.61072	154.05969	842.18323	-650.03217	91.44654	747.78204	-665.87128	124.95335	606.07355	-648.05609	233.78111	560.79590	-699.28424	125.02578	538.99402	-614.82629	174.41260	545.53033	-734.87646	127.85107	470.91995	-687.09027	146.10992	213.99728	-616.09778	78.61726	167.57790	-572.61865	49.86565	162.10225	-492.60022	90.43776	161.64706	-531.24561	143.70953	164.69308	-633.29663	219.00401	218.68779	-591.53882	189.51025	169.03152	-715.99866	215.32590	169.23019	-592.54803	436.62906	882.73065	-546.50238	375.45895	839.40350	-636.04932	441.16705	751.63959	-668.67139	415.32953	625.82013	-634.92450	311.26566	576.62073	-675.09601	412.62396	561.86615	-621.83838	370.40857	540.54321	-725.32727	418.07672	507.97382	-680.26642	414.45004	212.65543	-586.00372	468.43137	165.67371	-546.81183	479.65701	159.29294	-488.24088	429.49115	168.03204	-524.88397	387.95279	178.19911	-643.36316	326.56845	207.85507	-593.85413	347.17099	169.10672	-732.45471	342.69244	164.43394	-443.45792	449.13446	147.05574	-450.49698	75.06758	144.89690	-806.23352	82.54496	142.63734	-799.04468	457.57159	145.11157	
97	1.920	-389.57697	254.55223	1798.67065	-532.10150	57.36891	1516.72388	-544.69385	443.91000	1512.44006	-474.80646	260.33447	1365.30029	-569.76068	147.82176	1048.37622	-562.92908	381.74744	1054.33191	-759.13806	253.23970	1065.78296	-605.85834	95.69918	890.90686	-557.87048	153.79485	842.31848	-653.79211	91.39272	747.63733	-668.48364	124.89455	605.87921	-650.30444	233.55528	560.51154	-701.37842	125.02097	538.78113	-617.01862	174.39508	545.72949	-736.58447	127.82944	470.52927	-687.37396	145.97037	213.89491	-616.11798	78.54437	167.49664	-572.63092	49.75946	162.07867	-492.50760	90.68723	161.64531	-531.29163	143.68553	164.72940	-633.32172	218.91214	219.21030	-591.58026	189.43063	169.19969	-716.18494	215.13844	169.29993	-596.63098	436.53784	882.78802	-550.51367	375.19232	839.65076	-639.42963	441.41080	751.56641	-671.40637	415.37662	625.63440	-637.47919	311.30377	576.57269	-677.37653	412.77505	561.72467	-624.00891	370.39148	540.71918	-727.19806	418.28259	507.57025	-680.45099	414.66577	212.59625	-586.07648	468.41690	165.49791	-546.81488	479.66434	159.29326	-488.30615	429.43118	168.05119	-524.93646	387.99127	178.26352	-643.48053	326.76703	208.18306	-593.94812	347.29703	169.15720	-732.47870	342.80289	164.40125	-443.45145	449.11761	147.06401	-450.50519	75.05666	144.88985	-806.29065	82.60403	142.65912	-799.07452	457.54141	145.18300	
98	1.940	-374.14978	254.03754	1791.23340	-523.34210	57.24571	1513.55640	-535.30566	443.39789	1508.87646	-471.34976	260.04047	1361.54919	-574.46539	147.76459	1047.66321	-567.97375	380.59457	1053.23218	-763.55127	253.19670	1066.95642	-611.07867	95.66558	890.72418	-562.27209	153.46185	842.55518	-657.63916	91.34168	747.50848	-671.15594	124.91992	605.67444	-652.62561	233.40778	560.36438	-703.45978	124.97034	538.62994	-619.29852	174.37727	545.97668	-738.33148	127.82758	470.16647	-687.78265	145.83145	213.79530	-616.20239	78.46314	167.36255	-572.63751	49.63483	162.03311	-492.46368	90.83736	161.70244	-531.32922	143.68402	164.78108	-633.43243	218.84285	219.67691	-591.67773	189.33360	169.36276	-716.43469	214.91223	169.35965	-601.15320	436.46790	882.89813	-554.80225	374.99286	839.83325	-643.22797	441.52362	751.46100	-674.32471	415.35944	625.42273	-640.11859	311.36890	576.53326	-679.91431	412.85599	561.51910	-626.34729	370.44305	540.95233	-729.29352	418.41553	507.13193	-680.81818	414.80234	212.37643	-586.17902	468.41867	165.27077	-546.81927	479.67572	159.29037	-488.36270	429.39676	168.05925	-525.02100	388.02429	178.25803	-643.67499	327.00220	208.36375	-594.03534	347.46930	169.27086	-732.49054	342.87787	164.36336	-443.44061	449.09116	147.04826	-450.50684	75.08934	144.82483	-806.31158	82.62610	142.69391	-799.09369	457.54025	145.22572	
